<svg width="16" height="16" viewBox="0 0 16 16" fill="none" xmlns="http://www.w3.org/2000/svg">
<path d="M8 10.3333C7.91226 10.3338 7.82529 10.317 7.74406 10.2838C7.66284 10.2506 7.58896 10.2017 7.52667 10.14L4.86 7.47329C4.79784 7.41113 4.74854 7.33734 4.7149 7.25613C4.68126 7.17491 4.66394 7.08787 4.66394 6.99996C4.66394 6.91205 4.68126 6.82501 4.7149 6.74379C4.74854 6.66258 4.79784 6.58879 4.86 6.52663C4.92216 6.46447 4.99595 6.41516 5.07717 6.38152C5.15838 6.34788 5.24543 6.33057 5.33333 6.33057C5.42124 6.33057 5.50829 6.34788 5.5895 6.38152C5.67072 6.41516 5.74451 6.46447 5.80667 6.52663L8 8.73329L10.2 6.61329C10.2613 6.5451 10.3361 6.49029 10.4195 6.4523C10.503 6.41431 10.5934 6.39396 10.6851 6.3925C10.7768 6.39105 10.8679 6.40853 10.9525 6.44386C11.0371 6.47919 11.1136 6.5316 11.177 6.59782C11.2405 6.66403 11.2896 6.74263 11.3213 6.82869C11.353 6.91475 11.3666 7.00643 11.3612 7.09799C11.3559 7.18955 11.3317 7.27901 11.2902 7.3608C11.2487 7.44258 11.1907 7.51492 11.12 7.57329L8.45333 10.1466C8.33142 10.2642 8.16934 10.3309 8 10.3333Z" fill="#626EEF"/>
</svg>
