<svg width="16" height="17" viewBox="0 0 16 17" fill="none" xmlns="http://www.w3.org/2000/svg">
  <path d="M6 13.8333L6 5.16667L6.8 6.23333C6.85253 6.30337 6.91834 6.36238 6.99367 6.40698C7.06901 6.45159 7.15239 6.48092 7.23906 6.4933C7.32572 6.50568 7.41398 6.50087 7.49879 6.47914C7.5836 6.45741 7.6633 6.4192 7.73334 6.36667C7.81613 6.30457 7.88334 6.22405 7.92962 6.13147C7.97591 6.0389 8 5.93683 8 5.83333C8 5.68909 7.95322 5.54873 7.86667 5.43333L5.86667 2.76667C5.80445 2.68513 5.72426 2.61904 5.63234 2.57356C5.54041 2.52807 5.43923 2.50441 5.33667 2.50441C5.23411 2.50441 5.13293 2.52807 5.041 2.57356C4.94908 2.61904 4.86889 2.68513 4.80667 2.76667L2.80667 5.34C2.69793 5.47968 2.64913 5.65684 2.67101 5.8325C2.69289 6.00815 2.78366 6.16793 2.92334 6.27667C3.06302 6.38541 3.24017 6.4342 3.41583 6.41232C3.59149 6.39044 3.75126 6.29968 3.86 6.16L4.66667 5.11333L4.66667 13.8333C4.66667 14.0101 4.73691 14.1797 4.86193 14.3047C4.98696 14.4298 5.15653 14.5 5.33334 14.5C5.51015 14.5 5.67972 14.4298 5.80474 14.3047C5.92977 14.1797 6 14.0101 6 13.8333V13.8333Z" fill="#626EEF"/>
  <path d="M10.6666 3.16668L10.6666 11.8333L9.86663 10.7667C9.76054 10.6252 9.60261 10.5317 9.42758 10.5067C9.25254 10.4817 9.07474 10.5273 8.93329 10.6333C8.79185 10.7394 8.69833 10.8974 8.67333 11.0724C8.64832 11.2474 8.69388 11.4252 8.79996 11.5667L10.8 14.2333C10.8622 14.3149 10.9424 14.381 11.0343 14.4265C11.1262 14.4719 11.2274 14.4956 11.33 14.4956C11.4325 14.4956 11.5337 14.4719 11.6256 14.4265C11.7176 14.381 11.7977 14.3149 11.86 14.2333L13.86 11.66C13.9503 11.5436 13.9995 11.4006 14 11.2533C13.9997 11.1515 13.9762 11.0511 13.9311 10.9598C13.886 10.8685 13.8206 10.7888 13.74 10.7267C13.601 10.6184 13.4248 10.5696 13.2499 10.5908C13.075 10.612 12.9157 10.7016 12.8066 10.84L12 11.8867L12 3.16668C12 2.98987 11.9297 2.8203 11.8047 2.69527C11.6797 2.57025 11.5101 2.50001 11.3333 2.50001C11.1565 2.50001 10.9869 2.57025 10.8619 2.69527C10.7369 2.8203 10.6666 2.98987 10.6666 3.16668Z" fill="#E6EAEF"/>
</svg>
