<svg width="16" height="16" viewBox="0 0 16 16" fill="none" xmlns="http://www.w3.org/2000/svg">
  <path d="M6.47329 7.52682C6.34776 7.40129 6.1775 7.33076 5.99996 7.33076C5.82243 7.33076 5.65216 7.40129 5.52663 7.52682C5.40109 7.65236 5.33057 7.82262 5.33057 8.00016C5.33057 8.17769 5.40109 8.34795 5.52663 8.47349L7.52663 10.4735C7.58892 10.5353 7.6628 10.5842 7.74402 10.6173C7.82525 10.6505 7.91222 10.6673 7.99996 10.6668C8.09123 10.6639 8.18092 10.6423 8.26349 10.6033C8.34606 10.5643 8.41974 10.5088 8.47996 10.4402L13.1466 5.10682C13.2544 4.97304 13.3063 4.80283 13.2917 4.63168C13.277 4.46053 13.1968 4.30165 13.0678 4.18816C12.9389 4.07468 12.7711 4.01536 12.5995 4.02256C12.4278 4.02976 12.2656 4.10294 12.1466 4.22682L7.99996 9.02682L6.47329 7.52682Z" fill="#75C743"/>
  <path d="M14 7.3335C13.8231 7.3335 13.6536 7.40373 13.5286 7.52876C13.4035 7.65378 13.3333 7.82335 13.3333 8.00016C13.3333 9.41465 12.7714 10.7712 11.7712 11.7714C10.771 12.7716 9.41445 13.3335 7.99996 13.3335C6.94668 13.333 5.91713 13.0207 5.04113 12.4359C4.16513 11.851 3.48191 11.0199 3.07761 10.0473C2.67332 9.07475 2.56605 8.00423 2.76935 6.97076C2.97265 5.93729 3.4774 4.98715 4.21996 4.24016C4.71376 3.73975 5.30241 3.34286 5.95146 3.07271C6.60052 2.80255 7.29693 2.66457 7.99996 2.66683C8.42626 2.6695 8.85099 2.71868 9.26662 2.8135C9.3536 2.8404 9.44517 2.8492 9.53568 2.83936C9.62619 2.82952 9.71373 2.80125 9.79289 2.75628C9.87205 2.71132 9.94117 2.65061 9.99597 2.57791C10.0508 2.50521 10.0901 2.42206 10.1115 2.33357C10.133 2.24509 10.1361 2.15315 10.1206 2.06343C10.1052 1.97371 10.0715 1.8881 10.0217 1.81189C9.97188 1.73568 9.90699 1.67048 9.83102 1.6203C9.75505 1.57013 9.66961 1.53605 9.57996 1.52016C9.06206 1.39832 8.53199 1.3357 7.99996 1.3335C6.68285 1.34034 5.39728 1.73718 4.30549 2.47393C3.21369 3.21069 2.3646 4.25434 1.86537 5.47318C1.36613 6.69203 1.23913 8.03145 1.50038 9.3224C1.76163 10.6134 2.39943 11.798 3.33329 12.7268C4.57108 13.9652 6.24906 14.6627 7.99996 14.6668C9.76807 14.6668 11.4638 13.9645 12.714 12.7142C13.9642 11.464 14.6666 9.76827 14.6666 8.00016C14.6666 7.82335 14.5964 7.65378 14.4714 7.52876C14.3463 7.40373 14.1768 7.3335 14 7.3335Z" fill="#75C743"/>
</svg>
