<svg width="11" height="7" viewBox="0 0 11 7" fill="none" xmlns="http://www.w3.org/2000/svg">
  <path d="M5.0041 6.0041C4.8725 6.0049 4.7421 5.9797 4.6202 5.9299C4.4984 5.8801 4.3876 5.8068 4.2941 5.7141L0.2941 1.7141C0.2009 1.6209 0.1269 1.5102 0.0764999 1.3884C0.0259999 1.2666 0 1.136 0 1.0041C0 0.872301 0.0259999 0.7417 0.0764999 0.6199C0.1269 0.4981 0.2009 0.3874 0.2941 0.2941C0.3874 0.2009 0.4981 0.1269 0.6199 0.0764999C0.7417 0.0259999 0.872301 0 1.0041 0C1.136 0 1.2666 0.0259999 1.3884 0.0764999C1.5102 0.1269 1.6209 0.2009 1.7141 0.2941L5.0041 3.6041L8.3041 0.424101C8.3961 0.321901 8.5082 0.239599 8.6335 0.182699C8.7587 0.125699 8.8943 0.0951004 9.0318 0.0930004C9.1694 0.0908004 9.3059 0.117 9.4329 0.17C9.5598 0.223 9.6745 0.3016 9.7697 0.4009C9.8649 0.5002 9.9385 0.6181 9.9861 0.7472C10.0336 0.8763 10.054 1.0138 10.046 1.1512C10.038 1.2885 10.0017 1.4227 9.9394 1.5454C9.8772 1.6681 9.7903 1.7766 9.6841 1.8641L5.6841 5.7241C5.5013 5.9005 5.2581 6.0006 5.0041 6.0041Z" fill="#040726"/>
</svg>
