<svg width="16" height="16" viewBox="0 0 16 16" fill="none" xmlns="http://www.w3.org/2000/svg">
  <path d="M7.99998 1.33325C6.68144 1.33325 5.39251 1.72425 4.29618 2.45679C3.19985 3.18933 2.34537 4.23052 1.84079 5.4487C1.3362 6.66687 1.20418 8.00731 1.46141 9.30052C1.71865 10.5937 2.35359 11.7816 3.28594 12.714C4.21829 13.6463 5.40617 14.2813 6.69938 14.5385C7.99259 14.7957 9.33303 14.6637 10.5512 14.1591C11.7694 13.6545 12.8106 12.8 13.5431 11.7037C14.2757 10.6074 14.6666 9.31846 14.6666 7.99992C14.6666 7.12444 14.4942 6.25753 14.1592 5.4487C13.8241 4.63986 13.3331 3.90493 12.714 3.28587C12.095 2.66682 11.36 2.17575 10.5512 1.84072C9.74237 1.50569 8.87546 1.33325 7.99998 1.33325ZM7.99998 13.3333C6.94515 13.3333 5.914 13.0205 5.03694 12.4344C4.15988 11.8484 3.47629 11.0154 3.07263 10.0409C2.66896 9.06636 2.56334 7.994 2.76913 6.95944C2.97492 5.92487 3.48287 4.97456 4.22875 4.22868C4.97463 3.4828 5.92494 2.97485 6.9595 2.76906C7.99407 2.56328 9.06642 2.66889 10.041 3.07256C11.0155 3.47623 11.8485 4.15982 12.4345 5.03688C13.0205 5.91394 13.3333 6.94509 13.3333 7.99992C13.3333 9.41441 12.7714 10.771 11.7712 11.7712C10.771 12.7713 9.41447 13.3333 7.99998 13.3333Z" fill="#EC4A4A"/>
  <path d="M7.99998 11.3333C8.36817 11.3333 8.66665 11.0349 8.66665 10.6667C8.66665 10.2985 8.36817 10 7.99998 10C7.63179 10 7.33331 10.2985 7.33331 10.6667C7.33331 11.0349 7.63179 11.3333 7.99998 11.3333Z" fill="#EC4A4A"/>
  <path d="M7.99998 4.66675C7.82317 4.66675 7.6536 4.73699 7.52858 4.86201C7.40355 4.98703 7.33331 5.1566 7.33331 5.33341V8.66675C7.33331 8.84356 7.40355 9.01313 7.52858 9.13815C7.6536 9.26318 7.82317 9.33341 7.99998 9.33341C8.17679 9.33341 8.34636 9.26318 8.47138 9.13815C8.59641 9.01313 8.66665 8.84356 8.66665 8.66675V5.33341C8.66665 5.1566 8.59641 4.98703 8.47138 4.86201C8.34636 4.73699 8.17679 4.66675 7.99998 4.66675Z" fill="#EC4A4A"/>
</svg>
