<svg width="677" height="440" viewBox="0 0 677 440" fill="none" xmlns="http://www.w3.org/2000/svg">
<path fill-rule="evenodd" clip-rule="evenodd" d="M48.7462 2.29915C47.8262 3.40662 46.9924 9.10299 46.4881 17.7188C45.5571 33.664 45.5548 33.6684 40.0668 33.6684C35.2964 33.6684 30.0305 37.1156 30.0305 40.2382C30.0305 43.3011 27.1123 45.0424 21.7857 45.1572C15.0702 45.3029 15.1023 45.3913 15.1023 26.6724C15.1023 10.1707 15.0669 9.92339 12.6253 9.57778C9.14533 9.08422 8.59353 11.0375 5.26618 35.6724C3.68268 47.402 1.88797 57.9279 1.27978 59.063C-0.0128978 61.4756 -0.281607 139.677 1.00333 139.651C3.13199 139.607 4.31741 137.615 4.91012 133.087C6.32001 122.316 16.8638 107.589 21.8089 109.483C26.2786 111.197 22.1506 132.467 16.155 138.61C13.8405 140.982 12.3378 143.621 12.3378 145.316C12.3378 148.339 3.35094 167.65 1.3782 168.868C0.598609 169.349 0.173982 175.317 0.173982 185.792C0.173982 203.96 0.788806 204.585 6.71699 192.444C10.9555 183.764 13.9876 183.685 12.9747 192.282C12.5567 195.834 11.8689 201.97 11.4465 205.918C10.9644 210.429 9.81212 214.325 8.34473 216.407C7.06089 218.229 5.41768 221.544 4.69449 223.772C3.97019 226.001 2.65761 228.422 1.77628 229.151C-0.627722 231.143 -0.574643 260.022 1.83268 260.022C4.01221 260.022 4.01221 267.257 1.83268 271.063C0.502404 273.387 0.245859 286.963 0.212685 356.912L0.173982 440H338.548H676.923V377.615C676.923 343.303 676.706 315.23 676.442 315.23C673.087 315.23 670.522 317.736 669.9 321.625C669.118 326.509 667.907 327.818 663.111 328.967C658.951 329.964 658.172 331.231 658.915 335.799C659.541 339.653 658.365 340.665 651.489 342.19C649.77 342.571 648.098 344.165 647.066 346.407C646.101 348.504 643.852 350.74 641.686 351.754C639.641 352.714 637.472 354.38 636.868 355.457C634.961 358.861 614.421 366.883 610.984 365.567C609.346 364.939 601.728 350.08 601.728 347.513C601.728 346.713 600.76 344.163 599.576 341.846C594.694 332.29 572.924 261.306 566.834 235.085C565.886 231.005 564.144 225.774 562.962 223.461C561.78 221.148 560.814 218.209 560.814 216.931C560.814 204.836 542.34 193.458 538.256 203.038C537.641 204.481 533.169 199.744 533.169 197.65C533.169 196.88 532.422 195.632 531.51 194.876C530.107 193.713 529.851 193.953 529.851 196.436C529.851 205.241 523.317 207.246 519.644 199.569C516.05 192.056 513.765 192.55 514.008 200.786C514.15 205.631 514.773 207.86 516.496 209.691C521.418 214.922 518.853 220.272 511.423 220.272C506.106 220.272 504.418 222.137 504.418 228.015V231.488L496.401 231.125L488.384 230.761L488.288 237.666C488.167 246.395 488.202 246.37 478.757 244.752C470.168 243.281 468.382 244 469.623 248.428C473.487 262.214 471.595 265.314 461.525 261.687C449.018 257.182 448.054 257.936 451.399 269.615C454.878 281.761 454.311 286.038 449.651 282.796C446.674 280.726 433.353 275.48 431.073 275.48C428.542 275.48 428.749 277.987 431.943 285.958C438.765 302.986 437.358 304.834 423.121 297.552C408.546 290.098 406.342 290.717 411.502 300.818C417.993 313.524 416.151 315.655 402.865 310.813C388.836 305.701 387.508 306.304 391.248 316.083C393.921 323.071 391.768 325.186 384.168 323.037C374.027 320.169 373.318 320.217 371.796 323.884C369.959 328.315 369.363 328.469 351.344 329.149C334.374 329.788 335.129 329.998 329.824 323.193C326.036 318.335 319.344 314.126 315.408 314.126C314.189 314.126 311.556 313.41 309.559 312.537C307.562 311.663 304.658 310.685 303.106 310.363C300.963 309.918 299.501 308.14 297.026 302.969C295.229 299.214 291.897 294.563 289.596 292.597C286.77 290.182 284.541 286.753 282.691 281.979C280.898 277.351 278.603 273.771 276.015 271.562C272.793 268.812 271.577 266.492 269.36 258.877C267.142 251.263 265.875 248.847 262.436 245.68C258.704 242.242 258.009 240.741 256.297 232.418C253.641 219.511 252.737 217.579 248.394 215.51C244.14 213.484 244.035 213.193 241.856 197.39C240.01 183.998 239.93 183.834 235.226 183.834C229.737 183.834 228.924 181.949 227.787 166.555C226.434 148.251 225.123 145.97 218.464 150.328C213.635 153.487 212.704 151.1 211.932 133.595C210.924 110.729 209.567 108.51 201.968 117.288C195.823 124.386 194.795 121.988 194.795 100.556C194.795 82.6821 194.271 80.0432 190.725 80.0432C189.948 80.0432 188.332 81.907 187.137 84.1838C184.501 89.2033 177.535 96.6056 175.447 96.6056C172.803 96.6056 172.416 92.3811 173.228 72.4002C173.917 55.4292 173.796 52.7196 172.292 51.473C170.049 49.6136 168.593 50.6007 166.619 55.3177C164.644 60.0369 154.107 72.3141 152.032 72.3141C148.696 72.3141 148.124 67.5231 149.186 48.4631C150.225 29.8016 149.797 25.9393 146.692 25.9393C144.748 25.9393 143.344 28.5241 142.375 33.887C141.969 36.1329 140.038 39.9566 138.083 42.3857C136.129 44.8138 133.634 48.0689 132.541 49.6202C130.198 52.946 126.253 53.3004 123.642 50.4196C121.498 48.0534 121.293 40.1333 122.941 23.2131C124.418 8.03858 119.128 2.8711 115.651 16.0912C113.937 22.608 103.574 39.8892 100.972 40.5683C92.1278 42.8782 89.3832 36.7888 91.3349 19.1873C93.0257 3.93772 92.507 0.0632203 88.8679 0.763259C85.7528 1.36171 84.2478 6.19574 84.2312 15.6606C84.2136 25.2326 84.0178 25.6202 78.1969 27.5955C76.1401 28.2933 73.902 30.4829 72.1117 33.5502C68.2458 40.1697 66.6469 41.0111 61.0913 39.3493C53.8804 37.1918 53.2954 35.3986 54.4046 18.8693C55.5446 1.88288 53.6659 -3.61916 48.7462 2.29915ZM58.0891 49.1631C61.0725 52.703 61.088 52.4668 57.2829 61.3608C52.8089 71.8172 49.2327 69.4819 51.002 57.2577C52.9184 44.0232 53.3463 43.5341 58.0891 49.1631ZM18.5568 57.4885C21.9936 61.989 21.3368 66.0402 16.019 73.1422C10.7222 80.2143 8.18549 76.1654 10.1638 63.7988C11.9574 52.586 13.7709 51.2235 18.5568 57.4885ZM63.1979 94.7385C63.1934 96.6763 62.4924 99.599 61.6376 101.234C60.5849 103.249 60.2697 106.27 60.6578 110.62C61.2074 116.781 60.963 117.553 54.4278 130.283C44.7775 149.082 39.9462 152.853 41.532 140.347C41.9267 137.241 42.4144 132.185 42.6178 129.113C43.0701 122.266 47.9135 111.145 52.2482 106.998C54.0341 105.29 55.4639 102.754 55.4639 101.295C55.4639 96.9545 60.2653 89.401 62.2469 90.6244C62.7732 90.949 63.2012 92.8007 63.1979 94.7385ZM95.9262 98.2696C96.9944 102.518 95.266 110.074 89.4141 126.739C85.9674 136.556 80.8906 137.848 80.9139 128.902C80.9548 113.243 93.3386 87.9744 95.9262 98.2696ZM124.023 114.341C124.023 122.701 119.883 134.147 116.859 134.147C114.999 134.147 114.619 118.092 116.369 113.493C120.022 103.902 124.023 104.346 124.023 114.341ZM88.4642 171.693C88.9652 175.123 85.5947 188.854 82.9972 193.967C78.3241 203.167 71.289 198.728 75.3307 189.131C75.9179 187.737 76.912 184.56 77.539 182.072C79.9098 172.669 87.5464 165.414 88.4642 171.693ZM53.5763 178.875C53.4292 182.985 52.3843 187.287 50.6537 190.903C49.173 193.999 47.3584 198.52 46.6219 200.949C44.8405 206.824 37.1651 219.844 34.9923 220.677C29.6911 222.708 32.5562 199.656 38.1858 194.991C39.1014 194.231 41.1781 190.144 42.7992 185.907C48.3293 171.456 53.9733 167.772 53.5763 178.875ZM119.498 181.074C119.556 185.868 116.596 193.441 113.742 195.799C107.434 201.011 108.412 182.526 114.808 175.659C118.304 171.905 119.402 173.173 119.498 181.074ZM146.65 189.163C147.366 192.415 145.981 197.473 144.052 198.664C141.783 200.064 140.272 194.836 141.634 190.297C143.133 185.302 145.675 184.728 146.65 189.163ZM82.6079 238.358C81.4734 248.527 72.4622 263.979 68.9347 261.803C66.889 260.539 67.4463 252.196 69.9023 247.324C79.2375 228.805 84.0532 225.405 82.6079 238.358ZM115.177 235.222C115.177 243.084 108.51 251.187 105.733 246.7C104.443 244.615 106.339 238.097 109.238 234.658C113.077 230.102 115.177 230.302 115.177 235.222ZM144.455 240.066C145.348 242.874 142.277 250.084 140.188 250.084C136.976 250.084 136.709 243.146 139.776 239.319C141.41 237.279 143.685 237.642 144.455 240.066ZM45.3049 249.987C44.9621 254.715 44.1505 257.412 42.5382 259.178C41.2831 260.553 39.9263 263.522 39.5249 265.774C38.7575 270.072 31.0213 283.902 28.0932 286.21C21.3788 291.502 23.8746 270.093 30.6995 263.85C33.2617 261.507 34.4537 259.432 34.4537 257.313C34.4537 252.142 42.6499 240.16 44.7509 242.258C45.3226 242.829 45.5714 246.306 45.3049 249.987ZM77.5799 291.942C77.5799 295.981 66.8249 313.021 64.276 313.021C59.8871 313.021 65.5134 297.025 72.5794 289.412C76.0318 285.692 77.5799 286.475 77.5799 291.942ZM38.2544 307.897C38.1947 312.199 37.5699 313.675 34.4427 316.897C27.6188 323.927 23.8956 321.006 28.5244 312.251C34.3708 301.195 38.3694 299.405 38.2544 307.897ZM30.6332 333.399C33.8124 336.572 33.8865 337.201 31.6892 342.452C30.777 344.632 30.0305 347.288 30.0305 348.355C30.0305 349.42 30.777 350.911 31.6892 351.667C35.1603 354.543 33.0074 375.641 28.3508 384.386C25.342 390.037 24.9638 392.541 26.8381 394.412C27.6155 395.189 27.7913 397.406 27.3158 400.43C26.9 403.064 26.5793 407.438 26.6015 410.15C26.6645 417.754 13.1052 436.688 7.59721 436.688C3.68932 436.688 5.05387 424.644 10.072 414.855C14.2198 406.761 14.3304 406.291 12.2593 405.526C7.60827 403.808 8.95402 385.812 14.5991 374.215C18.4053 366.397 18.4407 366.095 16.0555 361.946C8.64772 349.057 21.3688 324.147 30.6332 333.399ZM71.5842 346.313C73.8379 350.663 73.0284 356.795 69.2422 364.069C66.0619 370.175 65.8573 372.155 68.3044 373.093C72.2433 374.602 69.9189 387.999 64.2793 396.301C53.8926 411.589 48.1413 403.836 56.2933 385.536C59.0743 379.292 59.1031 379.008 57.2453 375.868C55.2339 372.469 55.4816 361.775 57.7828 352.64C60.2177 342.971 68.0048 339.401 71.5842 346.313ZM105.76 365.966C107.03 369.96 100.924 378.167 96.6848 378.167C94.6678 378.167 94.9254 372.553 97.0928 369.304C100.846 363.676 104.576 362.239 105.76 365.966Z" fill="#465970"/>
</svg>
